<?xml version="1.0" standalone="no"?>
<!DOCTYPE svg PUBLIC "-//W3C//DTD SVG 1.1//EN" "http://www.w3.org/Graphics/SVG/1.1/DTD/svg11.dtd" >
<svg xmlns="http://www.w3.org/2000/svg" xmlns:xlink="http://www.w3.org/1999/xlink" version="1.1">
<metadata></metadata>
<defs>
<font id="camptonbold_italic" horiz-adv-x="1359" >
<font-face units-per-em="2048" ascent="1577" descent="-471" />
<missing-glyph horiz-adv-x="562" />
<glyph unicode="&#xfb01;" horiz-adv-x="1587" d="M44 759l54 304h259l9 50q27 151 107.5 263.5t196.5 170t252 57.5q126 0 274 -42l-94 -302q-75 26 -153 26q-90 0 -151 -45.5t-77 -134.5l-8 -43h853l-188 -1063h-355l134 759h-498l-133 -759h-355l134 759h-261z" />
<glyph unicode="&#xfb02;" horiz-adv-x="1590" d="M44 759l54 304h259l9 50q27 151 107.5 263.5t196.5 170t252 57.5q126 0 274 -42l-94 -302q-75 26 -153 26q-90 0 -151 -45.5t-77 -134.5l-8 -43h499l87 493h357l-276 -1556h-357l134 759h-498l-133 -759h-355l134 759h-261z" />
<glyph horiz-adv-x="0" />
<glyph horiz-adv-x="682" />
<glyph unicode=" "  horiz-adv-x="562" />
<glyph unicode="&#x09;" horiz-adv-x="562" />
<glyph unicode="&#xa0;" horiz-adv-x="562" />
<glyph unicode="!" horiz-adv-x="639" d="M61 171q0 77 57 129.5t136.5 52.5t136 -52.5t56.5 -129.5q0 -79 -56.5 -132.5t-136 -53.5t-136.5 53.5t-57 132.5zM160 487l147 1004h372l-208 -1004h-311z" />
<glyph unicode="&#x22;" horiz-adv-x="880" d="M142 945l115 648h287l-115 -648h-287zM596 945l114 648h287l-114 -648h-287z" />
<glyph unicode="#" horiz-adv-x="1737" d="M13 320l52 298h284l105 219h-228l52 298h322l176 358h341l-174 -358h295l175 358h342l-175 -358h199l-52 -298h-292l-107 -219h238l-52 -298h-333l-156 -320h-341l155 320h-295l-157 -320h-341l155 320h-188zM690 618h297l107 219h-299z" />
<glyph unicode="$" horiz-adv-x="1472" d="M75 500h372q0 -109 66.5 -163.5t205.5 -54.5q109 0 173 42.5t64 112.5q0 82 -136 113l-237 57q-190 45 -279 135.5t-83 250.5q3 72 23 136.5t54 116.5t80 96t102.5 76.5t119.5 54.5t132 35l44 243h287l-42 -235q71 -9 133.5 -28.5t123 -58t101.5 -91t62 -132.5t12 -178 h-370q2 91 -49 146t-162 55q-110 0 -177.5 -47t-67.5 -128q0 -49 38.5 -79t116.5 -46l202 -48q90 -21 157 -50t118.5 -71.5t77.5 -102t26 -136.5q0 -152 -77.5 -271.5t-216 -190t-320.5 -86.5l-36 -214h-288l39 230q-93 20 -167 60.5t-127.5 102.5t-78.5 151t-16 197z" />
<glyph unicode="%" horiz-adv-x="2421" d="M186 1014q0 87 28 166.5t78.5 141t117 107t147 70t164.5 24.5q169 0 274 -102t105 -266q0 -109 -44 -204.5t-117 -162.5t-170.5 -105.5t-203.5 -38.5q-169 0 -274 103t-105 267zM431 1052q0 -79 49.5 -127.5t126.5 -48.5q23 0 46.5 4.5t45 13t41.5 21.5t37.5 28.5t32 35 t24.5 41t15.5 46.5t5.5 51q0 78 -49.5 127t-123.5 49q-64 0 -121.5 -30.5t-93.5 -86.5t-36 -124zM607 0l995 1491h238l-994 -1491h-239zM1374 337q0 72 20 139.5t55.5 123t85 102t108.5 78t126.5 49t137.5 17.5q170 0 275.5 -103t105.5 -268q0 -107 -44 -202.5t-117 -162 t-171 -105t-203 -38.5q-170 0 -274.5 102t-104.5 268zM1622 374q0 -52 22 -92.5t61 -62.5t89 -22q63 0 120 30.5t93 87.5t36 126q0 77 -49.5 124.5t-126.5 47.5q-97 0 -171 -68t-74 -171z" />
<glyph unicode="&#x26;" horiz-adv-x="1629" d="M33 366q0 158 90 276.5t241 189.5q-53 101 -53 198q0 99 44 189t120 157t185 107t232 40q219 0 329 -126.5t90 -342.5h-334q5 79 -28 123t-98 44q-70 0 -119.5 -46.5t-49.5 -118.5q0 -54 36.5 -108.5t130.5 -161.5l203 -240l206 259h361l-366 -468q-2 -2 -11 -15 l274 -322h-456l-78 90q-202 -123 -453 -123q-229 0 -362.5 109t-133.5 290zM383 427q0 -34 15 -63.5t42 -51t65.5 -34.5t84.5 -13q95 0 192 46l-197 222q-9 11 -33 37.5t-35 40.5q-62 -32 -98 -80t-36 -104z" />
<glyph unicode="'" horiz-adv-x="426" d="M142 945l117 648h287l-117 -648h-287z" />
<glyph unicode="(" horiz-adv-x="902" d="M113 667q47 274 200.5 503.5t426.5 446.5l228 -258q-63 -57 -104.5 -95.5t-92 -89.5t-83.5 -92t-68.5 -93t-58.5 -101.5t-43 -109.5t-31 -125q-13 -76 -15 -145.5t7 -133t27 -122.5t47 -117.5t63.5 -113t80.5 -113.5l-287 -243q-194 213 -270 470.5t-27 531.5z" />
<glyph unicode=")" horiz-adv-x="897" d="M-31 -77q64 57 105 95.5t92 89.5t83.5 91.5t68.5 93t59 102t43 109.5t32 125q13 76 14.5 145.5t-7.5 133t-27 122.5t-47 117.5t-64 113t-80 113.5l288 243q193 -213 268.5 -470.5t26.5 -531.5q-47 -274 -200.5 -503.5t-426.5 -446.5z" />
<glyph unicode="*" horiz-adv-x="902" d="M155 1144l222 54l-147 147l132 129l144 -144l55 222l179 -49l-56 -225l226 54l48 -177l-220 -55l149 -149l-131 -129l-149 148l-57 -219l-176 46l57 226l-224 -57z" />
<glyph unicode="+" horiz-adv-x="1468" d="M221 579l49 280h376l62 360h291l-64 -360h378l-48 -280h-378l-63 -360h-291l63 360h-375z" />
<glyph unicode="," horiz-adv-x="512" d="M-59 -226l164 243q-56 24 -83.5 66t-27.5 95q0 78 57 132t137 54q83 0 141 -54.5t58 -134.5q0 -45 -23.5 -101.5t-98.5 -146.5l-127 -153h-197z" />
<glyph unicode="-" horiz-adv-x="1217" d="M190 410h792l57 311h-792z" />
<glyph unicode="." horiz-adv-x="514" d="M-6 178q0 79 58 134.5t138 55.5q83 0 143 -55.5t60 -134.5q0 -81 -60 -137t-143 -56q-81 0 -138.5 56t-57.5 137z" />
<glyph unicode="/" horiz-adv-x="943" d="M-125 -351l894 1951h340l-894 -1951h-340z" />
<glyph unicode="0" horiz-adv-x="1575" d="M119 605q0 84 12.5 165t37 155t59 142.5t80 127.5t99.5 109.5t117.5 90t133 67t148 42t160.5 14.5q180 0 309 -79.5t194 -221t65 -330.5q0 -108 -20.5 -210.5t-60 -193.5t-95 -170t-127.5 -141.5t-155.5 -107.5t-182 -69t-203.5 -24q-181 0 -311 79.5t-195 221.5t-65 333 zM475 627q0 -96 29 -170t91.5 -119t151.5 -45q98 0 179.5 45.5t136 123.5t84.5 181.5t30 219.5q0 97 -29 170.5t-90.5 118t-150.5 44.5q-98 0 -180.5 -45.5t-137 -123.5t-84.5 -181.5t-30 -218.5z" />
<glyph unicode="1" horiz-adv-x="1163" d="M-46 0l55 301h370l144 799l-370 -98l58 319l514 170h222l-211 -1190h349l-55 -301h-1076z" />
<glyph unicode="2" horiz-adv-x="1252" d="M-9 0l30 178l612 578q35 34 53.5 52t45.5 45t41 43t32 38t27 38.5t18 36t12.5 37.5t3.5 37q0 53 -36 87.5t-111 34.5q-60 0 -107.5 -22.5t-79 -64.5t-45.5 -102h-349q48 233 216 367.5t420 134.5q88 0 163 -19t129.5 -54t93 -84t57.5 -109t19 -127q0 -131 -71 -243 t-264 -288l-322 -293h527l-54 -301h-1061z" />
<glyph unicode="3" horiz-adv-x="1276" d="M48 437h347q1 -80 49 -123.5t146 -43.5q106 0 175.5 53t69.5 137q0 66 -54.5 104t-151.5 38h-123l48 272h123l-10 -61l10 61q102 0 168.5 56.5t66.5 143.5q0 43 -19.5 74.5t-54.5 48.5t-82 17q-92 0 -148.5 -45.5t-78.5 -127.5h-345q50 215 211 342t407 127 q137 0 237.5 -48t154 -135t53.5 -202q0 -134 -62.5 -229t-170.5 -151q163 -83 163 -256q0 -153 -78 -270.5t-221.5 -182.5t-331.5 -65q-242 0 -376.5 125.5t-121.5 340.5z" />
<glyph unicode="4" horiz-adv-x="1437" d="M29 263l38 230l581 998h356l-511 -919h348l73 410h349l-73 -410h186l-55 -309h-186l-46 -263h-349l46 263h-757z" />
<glyph unicode="5" horiz-adv-x="1338" d="M59 437h349q5 -53 29.5 -89.5t70.5 -57t110 -20.5q116 0 195 67t79 167q0 77 -58.5 124t-162.5 47h-508l188 816h985l-56 -316h-662l-49 -207h213q87 0 160 -19.5t127 -56t91.5 -87t56.5 -112.5t19 -132q0 -125 -51.5 -235t-141 -187.5t-214.5 -122.5t-266 -45 q-248 0 -379.5 125t-124.5 341z" />
<glyph unicode="6" horiz-adv-x="1344" d="M59 437q0 60 13 115t41.5 109.5t61.5 102t84 110.5l497 617h417l-362 -446q107 -6 195.5 -43t148 -97t92.5 -140t33 -171q0 -127 -53.5 -241.5t-146 -198.5t-225 -133.5t-283.5 -49.5q-118 0 -215.5 36t-162 98.5t-100 147.5t-35.5 184zM408 471q0 -84 59 -143.5 t156 -59.5q82 0 152 38.5t109.5 101t39.5 131.5q0 86 -58 147t-156 61q-106 0 -184 -53l-11 -12q-65 -71 -86 -114.5t-21 -96.5z" />
<glyph unicode="7" horiz-adv-x="1148" d="M37 0l728 1159h-623l59 332h1087l-37 -209l-797 -1282h-417z" />
<glyph unicode="8" horiz-adv-x="1347" d="M46 362q0 96 38 179t106.5 146.5t164.5 105.5q-129 91 -129 248q0 102 48.5 191.5t131.5 152t198 98t245 35.5q214 0 341 -100t127 -266q0 -119 -61.5 -211.5t-172.5 -154.5q88 -49 135 -125t47 -172q0 -113 -49 -208.5t-137.5 -164t-218 -107t-285.5 -38.5 q-251 0 -390 105.5t-139 285.5zM434 427q0 -73 52 -119.5t139 -46.5q107 0 184.5 65t77.5 157q0 71 -53 118t-140 47q-108 0 -184 -64t-76 -157zM561 1045q0 -68 48 -113t127 -45q100 0 170.5 62.5t70.5 148.5q0 67 -48 110t-129 43q-99 0 -169 -59.5t-70 -146.5z" />
<glyph unicode="9" horiz-adv-x="1347" d="M144 897q0 126 54 240.5t146.5 198.5t225 133t283.5 49q118 0 215.5 -35.5t162 -98t99.5 -147t35 -183.5q0 -49 -9 -95t-25 -86.5t-42 -85t-54.5 -83.5t-68.5 -89l-497 -615h-416l360 445q-107 6 -195.5 43.5t-148 97t-92.5 139.5t-33 172zM500 951q0 -86 58.5 -147 t156.5 -61q106 0 184 52l11 14q44 49 67.5 84t31 62.5t7.5 63.5q0 84 -58.5 144t-155.5 60q-82 0 -152.5 -38.5t-110 -101t-39.5 -132.5z" />
<glyph unicode=":" horiz-adv-x="521" d="M0 178q0 79 58 134.5t139 55.5q83 0 142.5 -55.5t59.5 -134.5q0 -81 -59.5 -137t-142.5 -56q-81 0 -139 56t-58 137zM119 892q0 80 58 135.5t139 55.5q82 0 141.5 -55.5t59.5 -135.5q0 -81 -59.5 -137t-141.5 -56q-81 0 -139 56t-58 137z" />
<glyph unicode=";" horiz-adv-x="516" d="M-55 -226l164 243q-56 24 -83.5 66t-27.5 95q0 78 57 132t138 54q82 0 141 -54.5t59 -134.5q0 -44 -24.5 -101t-98.5 -147l-128 -153h-197zM119 892q0 80 58 135.5t139 55.5q82 0 141.5 -55.5t59.5 -135.5q0 -81 -59.5 -137t-141.5 -56q-81 0 -139 56t-58 137z" />
<glyph unicode="&#x3c;" horiz-adv-x="1148" d="M81 510l57 322l997 417l-56 -337l-612 -255l522 -245l-58 -318z" />
<glyph unicode="=" horiz-adv-x="1480" d="M178 337l50 281h1056l-50 -281h-1056zM259 791l48 280h1056l-48 -280h-1056z" />
<glyph unicode="&#x3e;" horiz-adv-x="1148" d="M63 94l58 337l611 255l-521 245l57 318l849 -417l-57 -322z" />
<glyph unicode="?" horiz-adv-x="1180" d="M136 1041q51 216 213.5 342.5t399.5 126.5q223 0 348 -119.5t112 -319.5q-9 -188 -147 -312t-357 -152l-32 -127h-270l42 357h178q107 0 181 61t74 160q0 71 -44.5 113.5t-120.5 42.5q-56 0 -103.5 -21t-80 -60.5t-46.5 -91.5h-347zM282 171q0 51 26 92.5t69.5 65.5 t95.5 24q79 0 136.5 -52.5t57.5 -129.5q0 -79 -57 -132.5t-137 -53.5t-135.5 53.5t-55.5 132.5z" />
<glyph unicode="@" horiz-adv-x="2125" d="M79 393q0 147 45 288.5t123.5 259.5t189 218t238.5 169t275 107.5t297 38.5q178 0 329 -57t255.5 -158.5t163 -243t58.5 -307.5q0 -82 -12.5 -160t-38 -151.5t-67 -134t-95.5 -105.5t-128.5 -70.5t-162.5 -25.5q-227 0 -296 142q-156 -138 -346 -138q-107 0 -191.5 51 t-130.5 139.5t-46 198.5t44.5 210t117.5 171.5t170 113.5t200 42q140 0 235 -75l9 52h302l-94 -529q-13 -79 6.5 -116.5t72.5 -37.5q55 0 97.5 32t68 88t38.5 126t13 151q0 124 -43 230.5t-121 182.5t-191.5 118.5t-249.5 42.5q-114 0 -227.5 -30.5t-211.5 -85.5 t-182.5 -133t-144.5 -169.5t-94 -199.5t-34 -220q0 -130 46.5 -244t128 -195t197.5 -127.5t251 -46.5q129 0 256.5 41t237.5 119l95 -191q-92 -62 -196 -104.5t-212.5 -64t-218.5 -21.5q-178 0 -332 61.5t-262 168.5t-170 257t-62 322zM843 493q0 -79 49.5 -127t121.5 -48 q32 0 64 8t72.5 31.5t74.5 60.5q2 40 15 119l18 107q-21 33 -49.5 55t-58 31.5t-61.5 9.5q-44 0 -87.5 -17t-79 -47.5t-57.5 -78.5t-22 -104z" />
<glyph unicode="A" horiz-adv-x="1671" d="M-71 0l899 1499h355l366 -1499h-394l-55 257h-620l-145 -257h-406zM659 572h376l-104 480z" />
<glyph unicode="B" horiz-adv-x="1504" d="M42 0l263 1491h692q139 0 244 -43t161.5 -120t56.5 -178q0 -83 -34.5 -162t-97.5 -138.5t-141 -84.5q106 -26 162.5 -107t56.5 -191q0 -99 -44 -185t-122.5 -148.5t-194.5 -98t-253 -35.5h-749zM467 307h326q122 0 188.5 50t66.5 123q0 40 -22 67t-62.5 40t-97.5 13h-349 zM567 883h279q115 0 181.5 50t66.5 132q0 58 -49 90.5t-142 32.5h-280z" />
<glyph unicode="C" horiz-adv-x="1715" d="M127 745q30 165 116 309.5t209 246t280 159.5t324 58q200 0 348 -81q146 -81 220 -227q64 -127 64 -289q0 -24 -1 -49h-381q-4 141 -86.5 220t-228.5 79q-122 0 -226.5 -56t-172 -152.5t-88.5 -217.5q-9 -49 -9 -93q0 -126 70 -214q94 -118 276 -118q131 0 250 83 t172 215h378q-56 -191 -181 -337.5t-301.5 -228t-376.5 -81.5q-166 0 -302.5 57.5t-223.5 158.5q-86 101 -122 245q-20 80 -20 167q0 70 13 146z" />
<glyph unicode="D" horiz-adv-x="1631" d="M42 0l263 1491h598q154 0 282.5 -46.5t217 -128.5t137.5 -198.5t49 -254.5q0 -122 -34 -236t-95.5 -208.5t-149 -173t-192 -132.5t-227 -83.5t-251.5 -29.5h-598zM471 333h239q100 0 192.5 37.5t160.5 101t108.5 152t40.5 185.5q0 151 -98 249.5t-259 98.5h-240z" />
<glyph unicode="E" horiz-adv-x="1371" d="M42 0l263 1491h1126l-57 -323h-756l-49 -271h663l-57 -316h-660l-46 -259h756l-57 -322h-1126z" />
<glyph unicode="F" horiz-adv-x="1322" d="M42 0l263 1491h1113l-57 -328h-743l-57 -314h640l-55 -323h-642l-92 -526h-370z" />
<glyph unicode="G" horiz-adv-x="1765" d="M114 554q-1 14 -1 30q0 70 12 146q31 171 118 318.5t211 250.5t281.5 161t327.5 58q136 0 251.5 -37.5t201 -108t135.5 -176t56 -236.5h-375q-10 54 -32 95t-51 66t-68.5 40t-79 21t-87.5 6q-191 0 -333.5 -127.5t-178.5 -330.5q-7 -42 -7 -81q0 -67 21 -127 q35 -93 121 -148.5t209 -55.5q135 0 246 58.5t186 164.5l-425 5l50 291h797l-146 -837h-276l15 182q-208 -211 -509 -211q-98 0 -187 19.5t-160.5 56t-131 88.5t-99.5 117t-64.5 141t-27.5 161z" />
<glyph unicode="H" horiz-adv-x="1616" d="M42 0l263 1491h370l-106 -599h608l105 599h368l-263 -1491h-368l98 559h-607l-98 -559h-370z" />
<glyph unicode="I" horiz-adv-x="639" d="M42 0l263 1491h370l-263 -1491h-370z" />
<glyph unicode="J" horiz-adv-x="1357" d="M37 529h369q-2 -19 -2 -37q0 -45 14 -80q20 -49 69 -76t122 -27q107 0 180 76.5t98 210.5l158 895h375l-157 -895q-56 -308 -239 -466.5t-463 -158.5q-129 0 -234 39t-175.5 110t-101.5 176q-19 68 -19 145q0 43 6 88z" />
<glyph unicode="K" horiz-adv-x="1612" d="M42 0l263 1491h370l-114 -645l677 645h469l-684 -654l470 -837h-452l-320 548l-257 -245l-52 -303h-370z" />
<glyph unicode="L" horiz-adv-x="1316" d="M42 0l263 1491h370l-206 -1165h738l-59 -326h-1106z" />
<glyph unicode="M" horiz-adv-x="1877" d="M42 0l263 1491h276l383 -790l673 790h276l-263 -1491h-370l129 736l-418 -500v-2h-207v2l-240 515l-132 -751h-370z" />
<glyph unicode="N" horiz-adv-x="1640" d="M42 0l263 1491h256l591 -860l154 860h369l-264 -1491h-284l-571 826l-144 -826h-370z" />
<glyph unicode="O" horiz-adv-x="1765" d="M119 629q0 120 35 235.5t97 212.5t149.5 179.5t190 140t221 89.5t240.5 32q150 0 276.5 -50.5t213 -138t135 -208.5t48.5 -260q0 -120 -35 -235.5t-97.5 -212.5t-150 -179.5t-190 -140t-221.5 -90t-240 -32.5q-150 0 -276.5 50.5t-213 138.5t-134.5 209t-48 260zM498 673 q0 -72 23 -135t65.5 -111.5t107.5 -76.5t145 -28q97 0 190 39.5t163 106.5q70 66 112 158q42 90 41 189q0 74 -24 140q-23 63 -65.5 111t-108.5 75t-148 27q-66 0 -131 -18t-120 -50.5t-102 -78.5t-80 -100.5t-51 -118.5q-17 -60 -17 -122v-7z" />
<glyph unicode="P" horiz-adv-x="1445" d="M42 0l263 1491h578q129 0 234 -31.5t179 -91t114.5 -148.5t40.5 -201q0 -138 -56.5 -256.5t-156.5 -203t-244.5 -132.5t-314.5 -48h-199l-68 -379h-370zM537 703h222q91 0 164 36t113 97t40 134q0 93 -62.5 143t-172.5 50h-223z" />
<glyph unicode="Q" horiz-adv-x="1781" d="M119 629q0 120 35 235.5t97 212.5t149.5 179.5t190 140t221 89.5t240.5 32q150 0 276.5 -50.5t213 -138t135 -208.5t48.5 -260q0 -211 -104 -398t-280 -314l237 -278l-263 -239l-311 364q-111 -25 -213 -25q-150 0 -276.5 50.5t-213 138.5t-134.5 209t-48 260zM498 673 q0 -72 23 -135t65.5 -111.5t107.5 -76.5t145 -28q97 0 190 39.5t162.5 106t112.5 158.5q41 91 41 189q0 74 -24 140q-23 63 -65.5 111t-108.5 75t-148 27q-66 0 -131 -18t-120 -50.5t-102 -78.5t-80 -100.5t-51 -118.5q-17 -60 -17 -122v-7z" />
<glyph unicode="R" horiz-adv-x="1531" d="M42 0l263 1491h622q260 0 412 -119t152 -329q0 -177 -101 -321t-273 -220l292 -502h-439l-227 431h-254l-77 -431h-370zM548 765h274q77 0 144 28.5t108 81t41 116.5q0 80 -61.5 126t-161.5 46h-274z" />
<glyph unicode="S" horiz-adv-x="1472" d="M75 500h372q0 -109 66.5 -163.5t205.5 -54.5q109 0 173 42.5t64 112.5q0 82 -136 113l-237 57q-190 45 -279 135q-83 85 -83 231v20q4 103 43 190t103.5 149t150 105.5t183.5 64.5t204 21q56 0 109.5 -6.5t111.5 -22t108 -40t94.5 -63.5t74 -89t43.5 -120q9 -47 9 -100 q0 -26 -2 -54h-370v7q0 86 -49 139q-51 55 -162 55q-110 0 -177.5 -47t-67.5 -128q0 -49 38.5 -79t116.5 -46l202 -48q90 -21 157 -50t118.5 -71.5t77.5 -102t26 -136.5q0 -165 -90.5 -291t-251.5 -193.5t-368 -67.5q-103 0 -192.5 19.5t-165 61.5t-127.5 104t-77 150 q-18 65 -18 140q0 27 2 56z" />
<glyph unicode="T" horiz-adv-x="1419" d="M160 1159l59 332h1320l-60 -332h-475l-204 -1159h-371l204 1159h-473z" />
<glyph unicode="U" horiz-adv-x="1601" d="M127 453q-3 36 -3 74q0 79 14 167l140 797h373l-143 -803q-9 -55 -9 -102q1 -103 45 -172q66 -100 219 -100q147 0 252.5 101.5t134.5 272.5l143 803h372l-140 -797q-65 -358 -270.5 -542.5t-546.5 -184.5q-126 0 -229.5 34t-176.5 97.5t-119 153.5t-56 201z" />
<glyph unicode="V" horiz-adv-x="1708" d="M186 1491h391l247 -1014l609 1014h419l-909 -1500h-376z" />
<glyph unicode="W" horiz-adv-x="2321" d="M186 1491h391l113 -906l485 906h304l152 -914l435 914h401l-746 -1500h-358l-138 898l-464 -898h-358z" />
<glyph unicode="X" horiz-adv-x="1511" d="M-83 0l620 745l-353 746h447l206 -448l366 448h460l-624 -759l370 -732h-425l-241 458l-386 -458h-440z" />
<glyph unicode="Y" horiz-adv-x="1564" d="M175 1491h404l243 -628l464 628h439l-772 -1042h-2l-77 -449h-372l79 452z" />
<glyph unicode="Z" horiz-adv-x="1430" d="M-29 0l29 175l903 988h-690l55 328h1240l-29 -176l-870 -989h708l-54 -326h-1292z" />
<glyph unicode="[" horiz-adv-x="887" d="M-13 -322l337 1922h675l-58 -331h-318l-222 -1258h318l-60 -333h-672z" />
<glyph unicode="\" horiz-adv-x="943" d="M27 1600h339l552 -1951h-339z" />
<glyph unicode="]" horiz-adv-x="884" d="M-75 -322l60 331h318l220 1258h-316l58 333h673l-338 -1922h-675z" />
<glyph unicode="^" horiz-adv-x="959" d="M103 953l399 538h276l211 -538h-310l-85 270l-182 -270h-309z" />
<glyph unicode="_" horiz-adv-x="1364" d="M-123 -500l52 301h1246l-53 -301h-1245z" />
<glyph unicode="`" horiz-adv-x="1313" d="M339 1571h376l174 -350h-330z" />
<glyph unicode="a" d="M63 445q0 76 18.5 149.5t51.5 136.5t78.5 118.5t102 99t118.5 74.5t130 47.5t137 16.5q165 0 276 -79l9 55h355l-187 -1063h-355l12 59q-144 -80 -307 -80q-64 0 -122 15t-106 43.5t-87.5 70t-66.5 93t-42 113.5t-15 131zM416 491q0 -100 58 -160.5t151 -60.5 q135 0 236 96l59 333q-69 98 -201 98q-60 0 -116 -24.5t-97 -65.5t-65.5 -98t-24.5 -118z" />
<glyph unicode="b" horiz-adv-x="1357" d="M21 0l274 1556h356l-97 -552q145 79 305 79q94 0 175.5 -35.5t139 -97t90.5 -148.5t33 -187q0 -131 -54.5 -251t-142.5 -205t-203.5 -135.5t-235.5 -50.5q-160 0 -276 79l-8 -52h-356zM441 362q67 -97 201 -97q80 0 150 42t111.5 113t41.5 152q0 95 -57.5 158t-151.5 63 q-132 0 -236 -99z" />
<glyph unicode="c" horiz-adv-x="1261" d="M71 533q28 159 125 285.5t241.5 197.5t309.5 71q145 0 254.5 -57.5t165.5 -162.5q47 -88 47 -196q0 -21 -2 -44h-336q0 72 -49.5 115.5t-129.5 43.5q-113 0 -191 -71t-98 -182q-6 -33 -6 -62q0 -75 38 -125q54 -70 165 -70q81 0 145.5 44t92.5 117h336 q-37 -135 -130 -240.5t-223 -163.5t-274 -58q-172 0 -292 70q-120 71 -170 197q-31 79 -30 172q0 57 11 119z" />
<glyph unicode="d" horiz-adv-x="1362" d="M63 443q0 105 35 204t96.5 177t141 137t173.5 90.5t190 31.5q160 0 276 -79l96 552h357l-276 -1556h-355l10 52q-145 -79 -303 -79q-127 0 -227.5 61t-157 168.5t-56.5 240.5zM416 487q0 -96 57.5 -159t151.5 -63q135 0 236 97l59 332q-69 99 -201 99q-61 0 -117 -24.5 t-96.5 -65.5t-65 -98t-24.5 -118z" />
<glyph unicode="e" horiz-adv-x="1235" d="M71 533q28 163 122.5 289.5t235 195.5t303.5 69q174 0 286.5 -77.5t146.5 -218.5q14 -59 14 -128q0 -96 -27 -211h-765q5 -94 60.5 -148.5t161.5 -54.5q108 0 169 58h351q-70 -154 -224 -243t-346 -89q-131 0 -233.5 43t-165 117.5t-86.5 176.5q-13 55 -13 114 q0 52 10 107zM429 655h437v15q0 158 -167 158q-65 0 -118 -21t-90 -59.5t-62 -92.5z" />
<glyph unicode="f" horiz-adv-x="998" d="M44 759l54 304h259l9 50q27 151 107.5 263.5t196.5 170t252 57.5q126 0 274 -42l-94 -302q-75 26 -153 26q-90 0 -151 -45.5t-77 -134.5l-8 -43h376l-54 -304h-376l-133 -759h-355l134 759h-261z" />
<glyph unicode="g" horiz-adv-x="1364" d="M0 -61h353v-6q0 -73 45 -118q48 -47 143 -47q61 0 115.5 27t93 80t50.5 123l20 111q-136 -76 -297 -76q-132 0 -235.5 60.5t-159 164t-55.5 231.5q0 126 52.5 239t140 192t202.5 125t237 46q157 0 272 -75l10 47h356l-186 -1059q-29 -164 -120 -283t-228.5 -180.5 t-306.5 -61.5q-153 0 -268.5 57t-176.5 162q-57 98 -57 224v17zM425 533q0 -89 58.5 -153t158.5 -64q126 0 230 98l52 291q-69 95 -196 95q-129 0 -216 -77t-87 -190z" />
<glyph unicode="h" horiz-adv-x="1322" d="M21 0l274 1556h356l-99 -565q149 100 309 100q205 1 305 -129q72 -93 72 -236q0 -56 -11 -119l-105 -607h-357l96 550q7 37 7 68q0 60 -28 96q-42 54 -132 55q-104 0 -213 -100l-118 -669h-356z" />
<glyph unicode="i" horiz-adv-x="652" d="M61 0l186 1063h358l-189 -1063h-355zM278 1428q0 87 60.5 145t148.5 58q86 0 146.5 -58t60.5 -145q0 -84 -60.5 -141.5t-146.5 -57.5q-58 0 -105.5 26t-75.5 72t-28 101z" />
<glyph unicode="j" horiz-adv-x="642" d="M-219 -521l20 295q117 16 165.5 54.5t64.5 129.5l197 1105h355l-188 -1057q-18 -103 -45.5 -180.5t-74.5 -143.5t-113 -108.5t-161.5 -67.5t-219.5 -27zM268 1428q0 87 59.5 145t147.5 58q86 0 147.5 -58t61.5 -145q0 -84 -61.5 -141.5t-147.5 -57.5q-88 0 -147.5 57.5 t-59.5 141.5z" />
<glyph unicode="k" horiz-adv-x="1318" d="M21 0l278 1556h356l-157 -892l437 399h424l-481 -434l327 -629h-425l-188 368l-176 -157l-37 -211h-358z" />
<glyph unicode="l" horiz-adv-x="588" d="M21 0l278 1556h356l-276 -1556h-358z" />
<glyph unicode="m" horiz-adv-x="1986" d="M21 0l188 1063h354l-13 -70q74 49 144 73.5t149 24.5q98 0 173 -34.5t121 -100.5q178 135 386 135q211 1 309 -131q71 -94 70 -235q0 -55 -11 -118l-105 -607h-358l97 550q7 35 7 65q0 32 -8 58q-15 50 -52 73t-94 23q-101 0 -180 -72q-2 -27 -10 -90l-107 -607h-356 l97 550q7 37 7 67q0 61 -26 97q-39 56 -130 55q-98 0 -173 -75l-123 -694h-356z" />
<glyph unicode="n" horiz-adv-x="1322" d="M21 0l188 1063h354l-13 -72q152 100 311 100q205 1 305 -129q72 -93 72 -236q0 -56 -11 -119l-105 -607h-357l96 550q7 37 7 68q0 60 -28 96q-42 54 -132 55q-106 0 -215 -102l-116 -667h-356z" />
<glyph unicode="o" horiz-adv-x="1296" d="M63 443q0 134 54.5 254.5t146 206.5t218 136.5t265.5 50.5q110 0 201.5 -35.5t154 -98.5t97 -150t34.5 -189q0 -133 -54.5 -253t-146 -206t-218 -137t-265.5 -51q-110 0 -201.5 35.5t-154 98t-97 149.5t-34.5 189zM453 332.5q56 -60.5 152 -60.5q82 0 151 41 q70 41 108 110q38 67 37 145v4q0 94 -57 156.5t-152 62.5q-82 0 -151 -42.5t-107 -112.5q-37 -68 -37 -145q0 -98 56 -158.5z" />
<glyph unicode="p" d="M-65 -493l274 1556h354l-9 -53q142 81 303 81q126 0 227 -61t157 -168.5t56 -240.5q0 -132 -52.5 -252.5t-139 -206t-203 -136.5t-241.5 -51q-162 0 -276 82l-96 -550h-354zM441 366q68 -101 201 -101q80 0 150 43t111.5 114.5t41.5 152.5q0 96 -57.5 160.5t-151.5 64.5 q-132 0 -236 -101z" />
<glyph unicode="q" d="M63 445q0 106 35 206t96.5 178.5t141 138t173.5 91.5t190 32q162 0 276 -81l9 53h355l-274 -1556h-357l97 548q-141 -80 -303 -80q-125 0 -226 61.5t-157 169t-56 239.5zM416 491q0 -96 57.5 -161t151.5 -65q130 0 234 99l61 337q-72 99 -201 99q-80 0 -150 -42 t-111.5 -113.5t-41.5 -153.5z" />
<glyph unicode="r" horiz-adv-x="891" d="M21 0l188 1063h354l-19 -116q171 134 389 134l-59 -338q-128 -5 -221.5 -38.5t-167.5 -97.5l-108 -607h-356z" />
<glyph unicode="s" horiz-adv-x="1132" d="M21 366l318 -2v-7q0 -61 48 -91q51 -32 139 -32q158 0 158 82q0 19 -11.5 32.5t-36.5 24t-67 18.5l-176 30q-125 21 -197.5 86.5t-72.5 182.5q0 119 71 211t194 141t279 49q58 0 112.5 -8t107 -24.5t94 -46t71.5 -68.5q32 -40 44 -96q8 -34 7 -74q0 -25 -3 -51h-318v11 q0 33 -16 55q-18 26 -53 38t-86 12q-71 0 -111.5 -23.5t-40.5 -59.5q0 -59 97 -77l177 -35q55 -11 98.5 -26t81.5 -38.5t63 -53t39 -70t14 -90.5q0 -121 -70.5 -211.5t-195 -137t-286.5 -46.5q-84 0 -156.5 14t-134 44t-103 75.5t-62.5 111.5q-17 54 -17 119q0 15 1 31z" />
<glyph unicode="t" horiz-adv-x="1018" d="M57 759l52 304h209l63 361h357l-63 -361h360l-53 -304h-361l-56 -305q-4 -23 -4 -42q0 -46 21 -76q30 -43 106 -43q61 0 213 46l-18 -320q-172 -52 -320 -52q-127 0 -216 61q-89 62 -125 170q-22 65 -23 141q0 50 10 104l54 316h-206z" />
<glyph unicode="u" horiz-adv-x="1334" d="M96 456l105 607h355l-96 -553q-6 -34 -6 -63q0 -33 8 -60q15 -50 53.5 -73t97.5 -23q100 0 215 104l119 668h355l-189 -1063h-354l12 71q-155 -100 -311 -100q-204 0 -304 130q-72 93 -71 235q0 56 11 120z" />
<glyph unicode="v" horiz-adv-x="1298" d="M113 1063h376l147 -614l357 614h379l-629 -1063h-356z" />
<glyph unicode="w" horiz-adv-x="1756" d="M113 1063h374l48 -614l295 614h283l66 -609l278 609h373l-531 -1063h-343l-71 583l-272 -583h-322z" />
<glyph unicode="x" horiz-adv-x="1244" d="M-75 0l466 531l-280 532h406l150 -281l240 281h412l-466 -532l280 -531h-393l-157 305l-261 -305h-397z" />
<glyph unicode="y" horiz-adv-x="1373" d="M113 1063h378l186 -642l383 642h387l-932 -1556h-383l317 530z" />
<glyph unicode="z" horiz-adv-x="1112" d="M-33 0l33 173l598 594h-487l54 296h983l-33 -189l-584 -581h481l-52 -293h-993z" />
<glyph unicode="{" horiz-adv-x="805" d="M48 502l48 280q32 0 50.5 0.5t40.5 3t34 7.5t25.5 13.5t21 22t14.5 32.5t11 44l52 296q34 196 194.5 310.5t393.5 114.5l-57 -331q-71 0 -121.5 -32.5t-60.5 -83.5l-43 -257q-11 -60 -24 -99.5t-36.5 -77t-61.5 -62t-95 -41.5q41 -14 68 -32.5t41.5 -41t18.5 -54.5 t1.5 -65t-11.5 -81l-44 -257q-9 -50 29.5 -82.5t110.5 -32.5l-58 -331q-154 0 -261.5 51t-155 147.5t-24.5 226.5l50 289q5 25 5 44t-2.5 32.5t-13 22t-20.5 13.5t-31 7.5t-39 3t-50 0.5z" />
<glyph unicode="|" horiz-adv-x="584" d="M-19 -351l343 1951h316l-345 -1951h-314z" />
<glyph unicode="}" horiz-adv-x="803" d="M-88 -335l57 331q72 0 122 32t60 83l44 257q11 60 24 100t36.5 77t62 62t94.5 41q-67 23 -98 59.5t-32.5 89t11.5 125.5l44 257q10 51 -29 83.5t-111 32.5l60 331q233 0 353.5 -114.5t86.5 -310.5l-51 -289q-4 -26 -4 -44.5t2.5 -32t12.5 -22t20 -13.5t31 -7.5t39 -3 t50 -0.5l-48 -281q-32 0 -50 -0.5t-40.5 -3t-34.5 -7.5t-25.5 -13.5t-21 -22t-14 -32t-11.5 -44.5l-50 -295q-23 -130 -104 -226.5t-206.5 -147.5t-279.5 -51z" />
<glyph unicode="~" horiz-adv-x="1035" d="M67 577q0 88 23.5 158.5t62 113.5t88 69.5t103 31.5t106.5 -5t98 -35l92 -55q27 -16 47.5 -17t31.5 10.5t16 28.5t5 39h301q0 -89 -23 -159.5t-61.5 -114t-88 -70t-103 -32t-106 4.5t-96.5 36l-94 57q-27 15 -47 16.5t-31 -10.5t-16 -28.5t-5 -38.5h-303z" />
<glyph unicode="&#xa1;" horiz-adv-x="636" d="M-37 -421l208 1004h312l-148 -1004h-372zM195 899q0 79 56.5 132.5t136 53.5t136.5 -53.5t57 -132.5q0 -77 -57 -129.5t-137 -52.5q-52 0 -96 24t-70 65.5t-26 92.5z" />
<glyph unicode="&#xa2;" horiz-adv-x="1261" d="M71 533q35 199 175.5 343.5t336.5 190.5l46 261h287l-46 -252q169 -34 263 -155t79 -294h-336q0 72 -49.5 115.5t-129.5 43.5q-113 0 -191 -71t-98 -182q-21 -116 32.5 -186.5t164.5 -70.5q81 0 145.5 44t92.5 117h336q-47 -173 -183 -294t-317 -154l-37 -217h-287 l40 222q-187 44 -274.5 188t-49.5 351z" />
<glyph unicode="&#xa3;" horiz-adv-x="1351" d="M-42 0l55 305h121l50 285h-121l48 276h121l23 121q28 159 119 279.5t229 185t304 64.5q236 0 364 -127.5t109 -345.5h-355q-3 79 -47.5 122.5t-122.5 43.5q-62 0 -114 -26.5t-87 -77t-47 -118.5l-22 -121h399l-49 -276h-398l-50 -285h734l-58 -305h-1205z" />
<glyph unicode="&#xa5;" horiz-adv-x="1564" d="M144 144l40 230h383l14 78l-6 15h-374l40 230h244l-310 794h404l243 -628l464 628h439l-588 -794h259l-39 -230h-391l-13 -18h-2l-10 -75h398l-40 -230h-400l-25 -144h-372l24 144h-382z" />
<glyph unicode="&#xa6;" horiz-adv-x="586" d="M-19 -351l153 864h315l-154 -864h-314zM173 736l151 864h316l-151 -864h-316z" />
<glyph unicode="&#xa7;" horiz-adv-x="1228" d="M11 83h359q-2 -24 1 -45.5t12 -38.5t24 -29.5t37 -19.5t49 -7q59 0 95.5 29.5t36.5 77.5q0 30 -19 55t-52 39l-232 111q-135 63 -197 144t-62 180q0 72 25 136t72 115.5t114 87.5q-35 69 -35 153q0 131 71.5 232t195 155t276.5 54q218 0 337.5 -117.5t99.5 -318.5h-360 q7 63 -23.5 102t-99.5 39q-37 0 -67.5 -13.5t-48.5 -38.5t-18 -56q0 -63 75 -95l230 -111q261 -123 261 -324q0 -71 -24.5 -135t-72 -116t-113.5 -89q33 -72 33 -151q0 -99 -42 -182.5t-115.5 -140.5t-173 -88.5t-213.5 -31.5q-218 0 -337 118t-99 320zM403 644 q0 -61 116 -115l232 -111q33 12 54 38t21 57q0 22 -13.5 42.5t-38.5 38t-64 35.5l-230 109q-34 -9 -55.5 -35.5t-21.5 -58.5z" />
<glyph unicode="&#xa8;" horiz-adv-x="1313" d="M295 1398q0 76 55.5 128t134.5 52q77 0 131.5 -52t54.5 -128t-54.5 -127.5t-131.5 -51.5q-39 0 -74 13.5t-60.5 37.5t-40.5 57.5t-15 70.5zM763 1398q0 76 54.5 128t131.5 52q78 0 133 -52.5t55 -127.5q0 -76 -55 -127.5t-133 -51.5q-38 0 -72.5 13.5t-59.5 37.5 t-39.5 57.5t-14.5 70.5z" />
<glyph unicode="&#xa9;" horiz-adv-x="1798" d="M140 745q0 94 21.5 183t61 165.5t95 144t124.5 119.5t148 89t167.5 57t180.5 20q161 0 307.5 -59.5t254.5 -162t172 -248t64 -309t-64 -308.5t-172 -247.5t-254.5 -162t-307.5 -59.5q-107 0 -209.5 27t-190.5 75.5t-161.5 119.5t-126 156t-81.5 187.5t-29 212.5z M347 744.5q0 -119.5 47.5 -227.5t127.5 -185t188 -122t225 -45q118 0 226.5 45t189 122t128.5 185t48 227.5t-48 228t-128.5 185.5t-189 122.5t-226.5 45.5q-117 0 -225 -45.5t-188 -122.5t-127.5 -185.5t-47.5 -228zM572 743q0 153 104 254t265 101q142 0 239.5 -80.5 t116.5 -212.5h-232q-13 36 -47 58t-77 22q-41 0 -74 -19t-51.5 -51.5t-18.5 -71.5q0 -59 41 -101t103 -42q43 0 76.5 23t47.5 59h232q-12 -86 -60.5 -152t-125 -102.5t-170.5 -36.5q-161 0 -265 100t-104 252z" />
<glyph unicode="&#xaa;" horiz-adv-x="786" d="M107 951q0 114 87.5 178.5t234.5 64.5h189q25 119 -85 119q-44 0 -78 -21.5t-43 -59.5h-230q14 68 52.5 121t91.5 84.5t113.5 47.5t125.5 16q154 0 233 -82.5t55 -224.5l-75 -425h-234l6 36q-84 -49 -182 -49q-121 0 -191 52.5t-70 142.5zM339 999q0 -11 5.5 -21 t16 -18.5t29 -13.5t41.5 -5q74 0 150 41l13 72h-180q-32 0 -53.5 -14.5t-21.5 -40.5z" />
<glyph unicode="&#xab;" horiz-adv-x="1066" d="M42 552l272 353h315l-272 -366l147 -340h-316zM487 552l272 353h315l-272 -366l147 -340h-316z" />
<glyph unicode="&#xad;" horiz-adv-x="1217" d="M190 410h792l57 311h-792z" />
<glyph unicode="&#xae;" horiz-adv-x="1219" d="M121 970q0 116 44.5 218t120 173.5t178 113t215.5 41.5q91 0 175.5 -26.5t153.5 -75.5t121 -115.5t80.5 -151t28.5 -177.5q0 -114 -44.5 -215.5t-120 -173t-178.5 -113t-215.5 -41.5t-215.5 41.5t-178.5 113t-120 173t-44.5 215.5zM285 970q0 -106 54 -195t144 -139.5 t194 -50.5q106 0 196 50.5t144 139.5t54 195q0 108 -54 197.5t-144 140.5t-196 51q-78 0 -150 -30t-125.5 -81.5t-85 -124t-31.5 -153.5zM500 765v442h199q87 0 138.5 -44t51.5 -120q0 -85 -76 -129l99 -149h-156l-72 120h-55v-120h-129zM629 993h68q29 0 44 14t15 38 q0 15 -6.5 26t-20 18t-32.5 7h-68v-103z" />
<glyph unicode="&#xaf;" horiz-adv-x="1313" d="M368 1249l46 254h629l-48 -254h-627z" />
<glyph unicode="&#xb0;" horiz-adv-x="1012" d="M217 1142q0 110 51 197t140.5 135.5t200.5 48.5q110 0 199.5 -48.5t141.5 -136t52 -196.5q0 -83 -30.5 -154t-83 -121t-125 -78t-154.5 -28q-83 0 -155.5 28t-124.5 78t-82 121t-30 154zM452 1142q0 -64 46 -108.5t111 -44.5q63 0 109.5 44.5t46.5 108.5t-46.5 108.5 t-109.5 44.5q-65 0 -111 -44t-46 -109z" />
<glyph unicode="&#xb1;" horiz-adv-x="1465" d="M132 75l50 280h1041l-48 -280h-1043zM243 710l50 281h376l48 272h291l-48 -272h374l-48 -281h-374l-49 -269h-291l49 269h-378z" />
<glyph unicode="&#xb2;" horiz-adv-x="816" d="M79 609l22 125l376 342q81 74 106.5 105.5t25.5 65.5q0 29 -19.5 46.5t-52.5 17.5q-32 0 -57 -12t-41 -34t-23 -53h-234q27 144 129.5 231t263.5 87q70 0 126 -19t91.5 -51.5t54.5 -75t19 -91.5q0 -55 -18 -100t-66 -102t-140 -140l-142 -129h300l-39 -213h-682z" />
<glyph unicode="&#xb3;" horiz-adv-x="841" d="M119 892h247q4 -85 98 -85q35 0 63 12t43 33t15 47q0 65 -114 65h-72l35 193h72q56 0 90.5 26.5t34.5 67.5q0 19 -8.5 33.5t-26.5 23.5t-44 9q-41 0 -69.5 -25t-37.5 -63h-246q33 140 135 219t251 79q133 0 209 -64.5t76 -169.5q0 -174 -171 -230q129 -49 129 -168 q0 -87 -45 -155t-132 -107t-202 -39q-159 0 -248 80.5t-82 217.5z" />
<glyph unicode="&#xb4;" horiz-adv-x="1313" d="M513 1221l236 350h376l-282 -350h-330z" />
<glyph unicode="&#xb6;" horiz-adv-x="1836" d="M44 984q0 112 43.5 207.5t119.5 160.5t179.5 102t222.5 37h955v-1842h-320v1570h-155v-1570h-322v796h-158q-118 0 -222 39.5t-180 109t-119.5 171t-43.5 219.5zM351 982q0 -113 71 -182.5t187 -69.5h158v489h-158q-117 0 -187.5 -65t-70.5 -172z" />
<glyph unicode="&#xb7;" horiz-adv-x="514" d="M73 629q0 80 58 135.5t139 55.5q82 0 141.5 -55.5t59.5 -135.5q0 -81 -59.5 -136.5t-141.5 -55.5q-81 0 -139 55.5t-58 136.5z" />
<glyph unicode="&#xb8;" horiz-adv-x="1313" d="M301 -427l168 316h340l-207 -316h-301z" />
<glyph unicode="&#xb9;" horiz-adv-x="746" d="M55 615l35 213h226l75 421l-224 -59l40 226l326 100h146l-120 -688h215l-38 -213h-681z" />
<glyph unicode="&#xba;" horiz-adv-x="853" d="M142 1074q0 118 62 217.5t167 156.5t227 57q147 0 236.5 -88.5t89.5 -226.5q0 -119 -61 -219t-166.5 -157.5t-229.5 -57.5q-147 0 -236 89.5t-89 228.5zM374 1104q0 -61 35 -100.5t95 -39.5q77 0 131.5 58.5t54.5 136.5q0 38 -14.5 68t-44 48t-68.5 18q-79 0 -134 -56 t-55 -133z" />
<glyph unicode="&#xbb;" horiz-adv-x="1066" d="M0 199l272 366l-147 340h316l146 -353l-271 -353h-316zM445 199l272 366l-148 340h316l148 -353l-272 -353h-316z" />
<glyph unicode="&#xbc;" horiz-adv-x="2079" d="M48 590l35 212h226l74 421l-223 -60l39 226l327 102h147l-121 -689h215l-37 -212h-682zM473 0l995 1491h239l-994 -1491h-240zM1146 149l29 165l343 587h255l-296 -533h164l36 204h249l-35 -204h103l-35 -219h-107l-27 -149h-249l26 149h-456z" />
<glyph unicode="&#xbd;" horiz-adv-x="2037" d="M48 590l35 212h226l74 421l-223 -60l39 226l327 102h147l-121 -689h215l-37 -212h-682zM454 0l995 1491h238l-995 -1491h-238zM1192 0l22 125l377 342q56 50 80 74.5t38 48.5t14 48q0 19 -9 33.5t-25.5 22t-38.5 7.5q-48 0 -79 -26t-41 -73h-235q27 144 129.5 231 t262.5 87q139 0 215 -67t76 -169q0 -81 -44.5 -151.5t-178.5 -191.5l-143 -128h301l-39 -213h-682z" />
<glyph unicode="&#xbe;" horiz-adv-x="2070" d="M113 874h249q3 -85 98 -85q53 0 87 26t34 66q0 66 -114 66h-72l34 193h73q37 0 65.5 12t44 33.5t15.5 48.5q0 29 -20.5 47t-58.5 18q-28 0 -50.5 -11.5t-37 -31t-19.5 -44.5h-246q33 139 134.5 218.5t251.5 79.5q133 0 209 -64.5t76 -170.5q0 -173 -172 -230 q130 -48 130 -169q0 -86 -45.5 -154t-132 -106.5t-201.5 -38.5q-159 0 -248.5 80.5t-83.5 216.5zM458 0l995 1491h239l-995 -1491h-239zM1135 149l28 165l345 587h254l-296 -533h165l34 204h250l-35 -204h103l-35 -219h-108l-25 -149h-251l27 149h-456z" />
<glyph unicode="&#xbf;" horiz-adv-x="1180" d="M-15 113q10 189 147.5 313t356.5 153l32 126h270l-42 -356h-177q-107 0 -181.5 -61.5t-74.5 -160.5q0 -46 20 -81.5t58 -55t89 -19.5q84 0 146 47t84 126h345q-51 -216 -213.5 -342t-399.5 -126q-223 0 -348 119t-112 318zM529 1014q0 80 56.5 133.5t135.5 53.5 q39 0 74 -14.5t60.5 -39t41 -59t15.5 -74.5q0 -50 -26 -92t-69.5 -66t-95.5 -24q-79 0 -135.5 53t-56.5 129z" />
<glyph unicode="&#xc0;" horiz-adv-x="1671" d="M-71 0l899 1499h355l366 -1499h-394l-55 257h-620l-145 -257h-406zM646 1994h375l175 -350h-330zM659 572h376l-104 480z" />
<glyph unicode="&#xc1;" horiz-adv-x="1671" d="M-71 0l899 1499h355l366 -1499h-394l-55 257h-620l-145 -257h-406zM659 572h376l-104 480zM876 1644l237 350h375l-281 -350h-331z" />
<glyph unicode="&#xc2;" horiz-adv-x="1671" d="M-71 0l899 1499h355l366 -1499h-394l-55 257h-620l-145 -257h-406zM615 1644l318 359h336l193 -359h-299l-94 160l-134 -160h-320zM659 572h376l-104 480z" />
<glyph unicode="&#xc3;" horiz-adv-x="1671" d="M-71 0l899 1499h355l366 -1499h-394l-55 257h-620l-145 -257h-406zM648 1675q0 73 19.5 130t52 91.5t75 55t88.5 24.5t91 -4t84 -28l57 -29q28 -13 50 -14t35.5 8t20 25t6.5 38h237q0 -55 -10.5 -101.5t-30 -80t-46 -59t-57.5 -39.5t-65 -21t-69 -5t-68.5 10.5 t-63.5 23.5l-57 29q-56 24 -84 7.5t-28 -61.5h-237zM659 572h376l-104 480z" />
<glyph unicode="&#xc4;" horiz-adv-x="1671" d="M-71 0l899 1499h355l366 -1499h-394l-55 257h-620l-145 -257h-406zM640 1821q0 75 54.5 127.5t133.5 52.5q77 0 131.5 -52.5t54.5 -127.5q0 -76 -54 -128t-132 -52q-79 0 -133.5 52t-54.5 128zM659 572h376l-104 480zM1106 1821q0 75 54.5 127.5t132.5 52.5 q50 0 93.5 -24t69 -65.5t25.5 -90.5q0 -76 -55.5 -128t-132.5 -52q-51 0 -94 23.5t-68 65t-25 91.5z" />
<glyph unicode="&#xc5;" horiz-adv-x="1671" d="M-71 0l899 1499h355l366 -1499h-394l-55 257h-620l-145 -257h-406zM659 572h376l-104 480zM786 1878q0 113 76 182.5t196.5 69.5t196 -69.5t75.5 -182.5t-75.5 -183.5t-196 -70.5t-196.5 70.5t-76 183.5zM962 1878q0 -43 26 -68.5t70 -25.5q29 0 51 11.5t34 33t12 49.5 q0 41 -26.5 67.5t-70 26.5t-70 -26.5t-26.5 -67.5z" />
<glyph unicode="&#xc6;" horiz-adv-x="2513" d="M-71 0l1386 1491h1259l-56 -323h-756l-48 -271h661l-56 -316h-661l-46 -259h757l-57 -322h-1126l46 257h-596l-228 -257h-479zM918 572h368l90 515z" />
<glyph unicode="&#xc7;" horiz-adv-x="1715" d="M127 745q30 165 116 309.5t209 246t280 159.5t324 58q200 0 347.5 -81t221 -227.5t62.5 -337.5h-381q-4 141 -86.5 220t-228.5 79q-122 0 -226.5 -56t-172 -152.5t-88.5 -217.5q-33 -189 61 -307t276 -118q131 0 250 83t172 215h378q-56 -191 -181 -337.5t-301.5 -228 t-376.5 -81.5q-166 0 -302.5 57.5t-223.5 158.5t-122.5 245.5t-6.5 312.5zM372 -427l169 316h340l-206 -316h-303z" />
<glyph unicode="&#xc8;" horiz-adv-x="1371" d="M42 0l263 1491h1126l-57 -323h-756l-49 -271h663l-57 -316h-660l-46 -259h756l-57 -322h-1126zM493 1994h375l175 -350h-330z" />
<glyph unicode="&#xc9;" horiz-adv-x="1371" d="M42 0l263 1491h1126l-57 -323h-756l-49 -271h663l-57 -316h-660l-46 -259h756l-57 -322h-1126zM723 1644l237 350h374l-280 -350h-331z" />
<glyph unicode="&#xca;" horiz-adv-x="1371" d="M42 0l263 1491h1126l-57 -323h-756l-49 -271h663l-57 -316h-660l-46 -259h756l-57 -322h-1126zM462 1644l318 359h335l194 -359h-299l-94 160l-134 -160h-320z" />
<glyph unicode="&#xcb;" horiz-adv-x="1371" d="M42 0l263 1491h1126l-57 -323h-756l-49 -271h663l-57 -316h-660l-46 -259h756l-57 -322h-1126zM487 1821q0 50 25 91t68.5 65t94.5 24q77 0 131.5 -52.5t54.5 -127.5q0 -76 -54 -128t-132 -52q-79 0 -133.5 52t-54.5 128zM953 1821q0 75 54.5 127.5t132.5 52.5 q50 0 93.5 -24t69 -65.5t25.5 -90.5q0 -76 -55.5 -128t-132.5 -52q-78 0 -132.5 52t-54.5 128z" />
<glyph unicode="&#xcc;" horiz-adv-x="639" d="M42 0l263 1491h370l-263 -1491h-370zM136 1994h374l176 -350h-331z" />
<glyph unicode="&#xcd;" horiz-adv-x="639" d="M42 0l263 1491h370l-263 -1491h-370zM366 1644l236 350h375l-280 -350h-331z" />
<glyph unicode="&#xce;" horiz-adv-x="639" d="M42 0l263 1491h370l-263 -1491h-370zM105 1644l318 359h336l192 -359h-298l-94 160l-134 -160h-320z" />
<glyph unicode="&#xcf;" horiz-adv-x="639" d="M42 0l263 1491h370l-263 -1491h-370zM129 1821q0 75 55 127.5t134 52.5q77 0 131.5 -52.5t54.5 -127.5q0 -76 -54.5 -128t-131.5 -52q-79 0 -134 52t-55 128zM596 1821q0 75 54.5 127.5t131.5 52.5q78 0 133 -52.5t55 -127.5q0 -76 -55 -128t-133 -52t-132 52t-54 128z " />
<glyph unicode="&#xd0;" horiz-adv-x="1631" d="M11 602l54 293h134l106 596h598q154 0 282.5 -46.5t217 -128.5t137.5 -198.5t49 -254.5q0 -122 -34 -236t-95.5 -208.5t-149 -173t-192 -132.5t-227 -83.5t-251.5 -29.5h-598l107 602h-138zM471 333h239q100 0 192.5 37.5t160.5 101t108.5 152t40.5 185.5 q0 151 -98 249.5t-259 98.5h-240l-46 -262h228l-52 -293h-226z" />
<glyph unicode="&#xd1;" horiz-adv-x="1640" d="M42 0l263 1491h256l591 -860l154 860h369l-264 -1491h-284l-571 826l-144 -826h-370zM577 1675q-1 73 18.5 130t52 91.5t75 55t88.5 24.5t91 -4t85 -28l56 -29q28 -13 50 -14t35 8t20 25t7 38h236q1 -73 -18 -130.5t-51.5 -92.5t-74 -56.5t-87.5 -25.5t-91.5 4.5 t-86.5 28.5l-58 29q-56 24 -83.5 7.5t-27.5 -61.5h-236z" />
<glyph unicode="&#xd2;" horiz-adv-x="1765" d="M119 629q0 120 35 235.5t97 212.5t149.5 179.5t190 140t221 89.5t240.5 32q150 0 276.5 -50.5t213 -138t135 -208.5t48.5 -260q0 -120 -35 -235.5t-97.5 -212.5t-150 -179.5t-190 -140t-221.5 -90t-240 -32.5q-150 0 -276.5 50.5t-213 138.5t-134.5 209t-48 260zM498 673 q0 -72 23 -135t65.5 -111.5t107.5 -76.5t145 -28q97 0 190 39.5t162.5 106t112 159t41.5 193.5q-1 72 -24 135t-65.5 111t-108.5 75t-148 27q-66 0 -131 -18t-120 -50.5t-102 -78.5t-80 -100.5t-51 -118t-17 -129.5zM710 1994h375l175 -350h-331z" />
<glyph unicode="&#xd3;" horiz-adv-x="1765" d="M119 629q0 120 35 235.5t97 212.5t149.5 179.5t190 140t221 89.5t240.5 32q150 0 276.5 -50.5t213 -138t135 -208.5t48.5 -260q0 -120 -35 -235.5t-97.5 -212.5t-150 -179.5t-190 -140t-221.5 -90t-240 -32.5q-150 0 -276.5 50.5t-213 138.5t-134.5 209t-48 260zM498 673 q0 -72 23 -135t65.5 -111.5t107.5 -76.5t145 -28q97 0 190 39.5t162.5 106t112 159t41.5 193.5q-1 72 -24 135t-65.5 111t-108.5 75t-148 27q-66 0 -131 -18t-120 -50.5t-102 -78.5t-80 -100.5t-51 -118t-17 -129.5zM941 1644l236 350h375l-281 -350h-330z" />
<glyph unicode="&#xd4;" horiz-adv-x="1765" d="M119 629q0 120 35 235.5t97 212.5t149.5 179.5t190 140t221 89.5t240.5 32q150 0 276.5 -50.5t213 -138t135 -208.5t48.5 -260q0 -120 -35 -235.5t-97.5 -212.5t-150 -179.5t-190 -140t-221.5 -90t-240 -32.5q-150 0 -276.5 50.5t-213 138.5t-134.5 209t-48 260zM498 673 q0 -72 23 -135t65.5 -111.5t107.5 -76.5t145 -28q97 0 190 39.5t162.5 106t112 159t41.5 193.5q-1 72 -24 135t-65.5 111t-108.5 75t-148 27q-66 0 -131 -18t-120 -50.5t-102 -78.5t-80 -100.5t-51 -118t-17 -129.5zM679 1644l318 359h335l193 -359h-298l-94 160l-134 -160 h-320z" />
<glyph unicode="&#xd5;" horiz-adv-x="1765" d="M119 629q0 120 35 235.5t97 212.5t149.5 179.5t190 140t221 89.5t240.5 32q150 0 276.5 -50.5t213 -138t135 -208.5t48.5 -260q0 -120 -35 -235.5t-97.5 -212.5t-150 -179.5t-190 -140t-221.5 -90t-240 -32.5q-150 0 -276.5 50.5t-213 138.5t-134.5 209t-48 260zM498 673 q0 -72 23 -135t65.5 -111.5t107.5 -76.5t145 -28q97 0 190 39.5t162.5 106t112 159t41.5 193.5q-1 72 -24 135t-65.5 111t-108.5 75t-148 27q-66 0 -131 -18t-120 -50.5t-102 -78.5t-80 -100.5t-51 -118t-17 -129.5zM713 1675q-1 73 18.5 130t52 91.5t75 55t88.5 24.5t91 -4 t84 -28l57 -29q28 -13 50 -14t35 8t19.5 25t6.5 38h237q0 -73 -18.5 -130.5t-51 -92.5t-74.5 -56.5t-88 -25.5t-91.5 4.5t-86.5 28.5l-57 29q-56 24 -83.5 7.5t-27.5 -61.5h-236z" />
<glyph unicode="&#xd6;" horiz-adv-x="1765" d="M119 629q0 120 35 235.5t97 212.5t149.5 179.5t190 140t221 89.5t240.5 32q150 0 276.5 -50.5t213 -138t135 -208.5t48.5 -260q0 -120 -35 -235.5t-97.5 -212.5t-150 -179.5t-190 -140t-221.5 -90t-240 -32.5q-150 0 -276.5 50.5t-213 138.5t-134.5 209t-48 260zM498 673 q0 -72 23 -135t65.5 -111.5t107.5 -76.5t145 -28q97 0 190 39.5t162.5 106t112 159t41.5 193.5q-1 72 -24 135t-65.5 111t-108.5 75t-148 27q-66 0 -131 -18t-120 -50.5t-102 -78.5t-80 -100.5t-51 -118t-17 -129.5zM703 1821q0 75 55.5 127.5t133.5 52.5t132.5 -52.5 t54.5 -127.5q0 -76 -54.5 -128t-132.5 -52q-51 0 -94.5 23.5t-69 65t-25.5 91.5zM1171 1821q0 75 54 127.5t132 52.5q50 0 93.5 -24t69 -65.5t25.5 -90.5q0 -76 -55 -128t-133 -52q-51 0 -93.5 23.5t-67.5 65t-25 91.5z" />
<glyph unicode="&#xd7;" horiz-adv-x="1432" d="M171 401l360 304l-253 305l235 199l252 -304l357 304l164 -199l-357 -305l250 -304l-234 -200l-251 305l-359 -305z" />
<glyph unicode="&#xd8;" horiz-adv-x="1765" d="M119 629q0 120 35 235.5t97 212.5t149.5 179.5t190 140t221 89.5t240.5 32q228 0 397 -111l122 120l129 -126l-117 -117q142 -175 142 -423q0 -120 -35 -235.5t-97.5 -212.5t-150 -179.5t-190 -140t-221.5 -90t-240 -32.5q-242 0 -414 125l-128 -125l-128 127l126 126 q-128 168 -128 405zM498 673q0 -90 37 -167l633 625q-70 37 -169 37q-66 0 -131 -18t-120 -50.5t-102 -78.5t-80 -100.5t-51 -118t-17 -129.5zM655 370q78 -48 184 -48q97 0 190 39.5t162.5 106t112 159t41.5 193.5q0 105 -46 186z" />
<glyph unicode="&#xd9;" horiz-adv-x="1601" d="M127 453q-10 111 11 241l140 797h373l-143 -803q-30 -174 35.5 -274t219.5 -100q147 0 252.5 101.5t134.5 272.5l143 803h372l-140 -797q-65 -358 -270.5 -542.5t-546.5 -184.5q-126 0 -229.5 34t-176.5 97.5t-119 153.5t-56 201zM590 1994h374l176 -350h-331z" />
<glyph unicode="&#xda;" horiz-adv-x="1601" d="M127 453q-10 111 11 241l140 797h373l-143 -803q-30 -174 35.5 -274t219.5 -100q147 0 252.5 101.5t134.5 272.5l143 803h372l-140 -797q-65 -358 -270.5 -542.5t-546.5 -184.5q-126 0 -229.5 34t-176.5 97.5t-119 153.5t-56 201zM820 1644l236 350h375l-281 -350h-330z " />
<glyph unicode="&#xdb;" horiz-adv-x="1601" d="M127 453q-10 111 11 241l140 797h373l-143 -803q-30 -174 35.5 -274t219.5 -100q147 0 252.5 101.5t134.5 272.5l143 803h372l-140 -797q-65 -358 -270.5 -542.5t-546.5 -184.5q-126 0 -229.5 34t-176.5 97.5t-119 153.5t-56 201zM559 1644l317 359h336l193 -359h-299 l-94 160l-134 -160h-319z" />
<glyph unicode="&#xdc;" horiz-adv-x="1601" d="M127 453q-10 111 11 241l140 797h373l-143 -803q-30 -174 35.5 -274t219.5 -100q147 0 252.5 101.5t134.5 272.5l143 803h372l-140 -797q-65 -358 -270.5 -542.5t-546.5 -184.5q-126 0 -229.5 34t-176.5 97.5t-119 153.5t-56 201zM583 1821q0 75 55 127.5t133 52.5 t132.5 -52.5t54.5 -127.5q0 -76 -54.5 -128t-132.5 -52q-79 0 -133.5 52t-54.5 128zM1050 1821q0 75 54.5 127.5t131.5 52.5q51 0 94 -24t68.5 -65.5t25.5 -90.5q0 -76 -55 -128t-133 -52q-51 0 -93.5 23.5t-67.5 65t-25 91.5z" />
<glyph unicode="&#xdd;" horiz-adv-x="1564" d="M175 1491h404l243 -628l464 628h439l-772 -1042h-2l-77 -449h-372l79 452zM771 1644l237 350h374l-280 -350h-331z" />
<glyph unicode="&#xde;" horiz-adv-x="1445" d="M42 0l263 1491h370l-33 -189h230q258 0 402 -122.5t144 -340.5q0 -142 -56.5 -262.5t-156.5 -205.5t-244 -133t-315 -48h-201l-33 -190h-370zM502 515h223q139 0 227.5 77.5t88.5 196.5q0 56 -28 98t-81 65t-125 23h-222z" />
<glyph unicode="&#xdf;" horiz-adv-x="1463" d="M29 0l164 941q50 285 214 432t425 147q110 0 203.5 -26t164 -76t110.5 -129.5t40 -179.5q0 -85 -27.5 -155t-78.5 -119t-122 -76q228 -83 228 -318q0 -137 -70.5 -242t-191.5 -160.5t-273 -55.5q-109 0 -259 21l51 283q115 -13 162 -13q110 0 173.5 49t63.5 131 q0 70 -48 110.5t-130 40.5h-142l44 248q72 7 126 30t83.5 56t43.5 67t14 68q0 68 -49.5 108.5t-134.5 40.5q-60 0 -106 -22.5t-77.5 -68t-52.5 -104.5t-36 -141l-156 -887h-356z" />
<glyph unicode="&#xe0;" d="M63 445q0 76 18.5 149.5t51.5 136.5t78.5 118.5t102 99t118.5 74.5t130 47.5t137 16.5q165 0 276 -79l9 55h355l-187 -1063h-355l12 59q-144 -80 -307 -80q-64 0 -122 15t-106 43.5t-87.5 70t-66.5 93t-42 113.5t-15 131zM416 491q0 -100 58 -160.5t151 -60.5 q135 0 236 96l59 333q-69 98 -201 98q-60 0 -116 -24.5t-97 -65.5t-65.5 -98t-24.5 -118zM429 1543h376l174 -351h-331z" />
<glyph unicode="&#xe1;" d="M63 445q0 76 18.5 149.5t51.5 136.5t78.5 118.5t102 99t118.5 74.5t130 47.5t137 16.5q165 0 276 -79l9 55h355l-187 -1063h-355l12 59q-144 -80 -307 -80q-64 0 -122 15t-106 43.5t-87.5 70t-66.5 93t-42 113.5t-15 131zM416 491q0 -100 58 -160.5t151 -60.5 q135 0 236 96l59 333q-69 98 -201 98q-60 0 -116 -24.5t-97 -65.5t-65.5 -98t-24.5 -118zM671 1192l236 351h375l-280 -351h-331z" />
<glyph unicode="&#xe2;" d="M63 445q0 76 18.5 149.5t51.5 136.5t78.5 118.5t102 99t118.5 74.5t130 47.5t137 16.5q165 0 276 -79l9 55h355l-187 -1063h-355l12 59q-144 -80 -307 -80q-64 0 -122 15t-106 43.5t-87.5 70t-66.5 93t-42 113.5t-15 131zM406 1177l317 360h335l193 -360h-298l-94 159 l-134 -159h-319zM416 491q0 -100 58 -160.5t151 -60.5q135 0 236 96l59 333q-69 98 -201 98q-60 0 -116 -24.5t-97 -65.5t-65.5 -98t-24.5 -118z" />
<glyph unicode="&#xe3;" d="M63 445q0 76 18.5 149.5t51.5 136.5t78.5 118.5t102 99t118.5 74.5t130 47.5t137 16.5q165 0 276 -79l9 55h355l-187 -1063h-355l12 59q-144 -80 -307 -80q-64 0 -122 15t-106 43.5t-87.5 70t-66.5 93t-42 113.5t-15 131zM414 1238q0 73 19 130t52 91.5t75 55.5t88 24.5 t91.5 -4.5t84.5 -27l57 -29q38 -18 63 -13.5t37 23t12 48.5h236q1 -74 -18 -131.5t-51.5 -92.5t-74 -56t-87.5 -25t-92 4t-86 29l-57 28q-56 23 -84 6.5t-28 -61.5h-237zM416 491q0 -100 58 -160.5t151 -60.5q135 0 236 96l59 333q-69 98 -201 98q-60 0 -116 -24.5 t-97 -65.5t-65.5 -98t-24.5 -118z" />
<glyph unicode="&#xe4;" d="M63 445q0 76 18.5 149.5t51.5 136.5t78.5 118.5t102 99t118.5 74.5t130 47.5t137 16.5q165 0 276 -79l9 55h355l-187 -1063h-355l12 59q-144 -80 -307 -80q-64 0 -122 15t-106 43.5t-87.5 70t-66.5 93t-42 113.5t-15 131zM393 1370q0 75 54.5 127t133.5 52 q77 0 131.5 -52t54.5 -127q0 -77 -54 -128.5t-132 -51.5q-79 0 -133.5 51.5t-54.5 128.5zM416 491q0 -100 58 -160.5t151 -60.5q135 0 236 96l59 333q-69 98 -201 98q-60 0 -116 -24.5t-97 -65.5t-65.5 -98t-24.5 -118zM859 1370q0 75 54.5 127t131.5 52q51 0 94.5 -23.5 t69 -65t25.5 -90.5q0 -77 -55.5 -128.5t-133.5 -51.5q-50 0 -93 23t-68 64.5t-25 92.5z" />
<glyph unicode="&#xe5;" d="M63 445q0 76 18.5 149.5t51.5 136.5t78.5 118.5t102 99t118.5 74.5t130 47.5t137 16.5q165 0 276 -79l9 55h355l-187 -1063h-355l12 59q-144 -80 -307 -80q-64 0 -122 15t-106 43.5t-87.5 70t-66.5 93t-42 113.5t-15 131zM416 491q0 -100 58 -160.5t151 -60.5 q135 0 236 96l59 333q-69 98 -201 98q-60 0 -116 -24.5t-97 -65.5t-65.5 -98t-24.5 -118zM552 1411q0 113 75.5 182.5t196.5 69.5q79 0 141 -31.5t96.5 -88.5t34.5 -132q0 -113 -76 -183.5t-196 -70.5q-60 0 -110.5 18.5t-86 52t-55.5 80.5t-20 103zM728 1411q0 -42 26 -68 t70 -26t70 26t26 68t-26 68t-70 26t-70 -26t-26 -68z" />
<glyph unicode="&#xe6;" horiz-adv-x="1976" d="M35 274q0 168 132.5 268t351.5 100h296q37 186 -142 186q-46 0 -86.5 -14.5t-69.5 -44t-40 -68.5h-324q15 67 46.5 124.5t74.5 100.5t95 75.5t110.5 53t119 31t122.5 10.5q116 0 204 -34.5t142 -99.5q176 125 397 125q174 0 286.5 -77.5t146.5 -218.5t-13 -339h-764 q4 -62 27.5 -106t72.5 -70.5t121 -26.5q108 0 169 58h351q-70 -154 -224 -243t-347 -89q-125 0 -224 40t-165 112q-88 -69 -191 -107.5t-254 -38.5q-193 0 -307 78t-114 215zM381 335q0 -37 34 -62.5t104 -25.5q69 0 134.5 21.5t146.5 72.5q-7 47 -7 82h-295 q-52 0 -84.5 -24t-32.5 -64zM1161 655h437q8 173 -167 173q-97 0 -165 -45.5t-105 -127.5z" />
<glyph unicode="&#xe7;" horiz-adv-x="1261" d="M71 533q28 159 125 285.5t241.5 197.5t309.5 71q145 0 254.5 -57.5t165.5 -162.5t45 -240h-336q0 72 -49.5 115.5t-129.5 43.5q-113 0 -191 -71t-98 -182q-21 -116 32.5 -186.5t164.5 -70.5q81 0 145.5 44t92.5 117h336q-37 -135 -130 -240.5t-223 -163.5t-274 -58 q-172 0 -292 70t-169.5 196.5t-19.5 291.5zM199 -412l169 316h340l-206 -316h-303z" />
<glyph unicode="&#xe8;" horiz-adv-x="1235" d="M71 533q28 163 122.5 289.5t235 195.5t303.5 69q174 0 286.5 -77.5t146.5 -218.5t-13 -339h-765q5 -94 60.5 -148.5t161.5 -54.5q108 0 169 58h351q-70 -154 -224 -243t-346 -89q-131 0 -233.5 43t-165 117.5t-86.5 177t-3 220.5zM364 1543h374l176 -351h-331zM429 655 h437q8 173 -167 173q-65 0 -118 -21t-90 -59.5t-62 -92.5z" />
<glyph unicode="&#xe9;" horiz-adv-x="1235" d="M71 533q28 163 122.5 289.5t235 195.5t303.5 69q174 0 286.5 -77.5t146.5 -218.5t-13 -339h-765q5 -94 60.5 -148.5t161.5 -54.5q108 0 169 58h351q-70 -154 -224 -243t-346 -89q-131 0 -233.5 43t-165 117.5t-86.5 177t-3 220.5zM429 655h437q8 173 -167 173 q-65 0 -118 -21t-90 -59.5t-62 -92.5zM605 1192l236 351h376l-282 -351h-330z" />
<glyph unicode="&#xea;" horiz-adv-x="1235" d="M71 533q28 163 122.5 289.5t235 195.5t303.5 69q174 0 286.5 -77.5t146.5 -218.5t-13 -339h-765q5 -94 60.5 -148.5t161.5 -54.5q108 0 169 58h351q-70 -154 -224 -243t-346 -89q-131 0 -233.5 43t-165 117.5t-86.5 177t-3 220.5zM339 1177l318 360h336l193 -360h-299 l-94 159l-134 -159h-320zM429 655h437q8 173 -167 173q-65 0 -118 -21t-90 -59.5t-62 -92.5z" />
<glyph unicode="&#xeb;" horiz-adv-x="1235" d="M71 533q28 163 122.5 289.5t235 195.5t303.5 69q174 0 286.5 -77.5t146.5 -218.5t-13 -339h-765q5 -94 60.5 -148.5t161.5 -54.5q108 0 169 58h351q-70 -154 -224 -243t-346 -89q-131 0 -233.5 43t-165 117.5t-86.5 177t-3 220.5zM326 1370q0 75 55 127t134 52 q77 0 131.5 -52t54.5 -127q0 -77 -54.5 -128.5t-131.5 -51.5q-79 0 -134 51.5t-55 128.5zM429 655h437q8 173 -167 173q-65 0 -118 -21t-90 -59.5t-62 -92.5zM793 1370q0 75 54.5 127t131.5 52q78 0 133.5 -52t55.5 -127q0 -77 -55.5 -128.5t-133.5 -51.5t-132 51.5 t-54 128.5z" />
<glyph unicode="&#xec;" horiz-adv-x="586" d="M15 1543h376l174 -351h-331zM21 0l190 1063h354l-186 -1063h-358z" />
<glyph unicode="&#xed;" horiz-adv-x="586" d="M21 0l190 1063h354l-186 -1063h-358zM257 1192l236 351h375l-281 -351h-330z" />
<glyph unicode="&#xee;" horiz-adv-x="586" d="M-9 1177l318 360h335l193 -360h-298l-94 159l-134 -159h-320zM21 0l190 1063h354l-186 -1063h-358z" />
<glyph unicode="&#xef;" horiz-adv-x="586" d="M-21 1370q0 75 54.5 127t133.5 52q77 0 131.5 -52t54.5 -127q0 -77 -54 -128.5t-132 -51.5q-79 0 -133.5 51.5t-54.5 128.5zM21 0l190 1063h354l-186 -1063h-358zM445 1370q0 75 54.5 127t131.5 52q78 0 133.5 -52t55.5 -127q0 -77 -55.5 -128.5t-133.5 -51.5 q-77 0 -131.5 51.5t-54.5 128.5z" />
<glyph unicode="&#xf0;" horiz-adv-x="1294" d="M63 445q0 106 34.5 205.5t95.5 177.5t141 137t175 90.5t194 31.5q88 0 158 -27q-48 91 -116 157l-358 -121l-38 192l212 69q-24 15 -54.5 32t-70.5 37.5t-59 30.5l331 134q108 -55 184 -117l239 82l42 -195l-128 -44q94 -116 145.5 -278.5t51.5 -337.5 q0 -131 -35.5 -247.5t-99.5 -204.5t-149.5 -152t-189 -97t-214.5 -33q-149 0 -261.5 62t-171 170t-58.5 246zM403 487q0 -45 13.5 -83.5t38.5 -67.5t63.5 -45.5t86.5 -16.5q79 0 146 41t105.5 109.5t38.5 147.5q0 99 -52 153.5t-151 54.5q-79 0 -146 -40.5t-105 -107.5 t-38 -145z" />
<glyph unicode="&#xf1;" horiz-adv-x="1322" d="M21 0l188 1063h354l-13 -72q152 100 311 100q205 0 305 -129.5t61 -354.5l-105 -607h-357l96 550q21 110 -20.5 164.5t-132.5 54.5q-106 0 -215 -102l-116 -667h-356zM364 1238q-1 73 18.5 130t52 91.5t75 55.5t88.5 24.5t91 -4.5t85 -27l56 -29q39 -18 64 -13.5t37 23 t12 48.5h236q1 -74 -18 -131.5t-51.5 -92.5t-74.5 -56t-88 -25t-91.5 4t-86.5 29l-56 28q-57 23 -85 6.5t-28 -61.5h-236z" />
<glyph unicode="&#xf2;" horiz-adv-x="1296" d="M63 443q0 134 54.5 254.5t146 206.5t218 136.5t265.5 50.5q110 0 201.5 -35.5t154 -98.5t97 -150t34.5 -189q0 -133 -54.5 -253t-146 -206t-218 -137t-265.5 -51q-110 0 -201.5 35.5t-154 98t-97 149.5t-34.5 189zM370 1543h375l175 -351h-330zM397 487q0 -94 56 -154.5 t152 -60.5q82 0 151 41t107.5 110t37.5 149q0 94 -57 156.5t-152 62.5q-82 0 -151 -42.5t-107 -112.5t-37 -149z" />
<glyph unicode="&#xf3;" horiz-adv-x="1296" d="M63 443q0 134 54.5 254.5t146 206.5t218 136.5t265.5 50.5q110 0 201.5 -35.5t154 -98.5t97 -150t34.5 -189q0 -133 -54.5 -253t-146 -206t-218 -137t-265.5 -51q-110 0 -201.5 35.5t-154 98t-97 149.5t-34.5 189zM397 487q0 -94 56 -154.5t152 -60.5q82 0 151 41 t107.5 110t37.5 149q0 94 -57 156.5t-152 62.5q-82 0 -151 -42.5t-107 -112.5t-37 -149zM611 1192l238 351h374l-280 -351h-332z" />
<glyph unicode="&#xf4;" horiz-adv-x="1296" d="M63 443q0 134 54.5 254.5t146 206.5t218 136.5t265.5 50.5q110 0 201.5 -35.5t154 -98.5t97 -150t34.5 -189q0 -133 -54.5 -253t-146 -206t-218 -137t-265.5 -51q-110 0 -201.5 35.5t-154 98t-97 149.5t-34.5 189zM347 1177l317 360h335l193 -360h-297l-95 159l-133 -159 h-320zM397 487q0 -94 56 -154.5t152 -60.5q82 0 151 41t107.5 110t37.5 149q0 94 -57 156.5t-152 62.5q-82 0 -151 -42.5t-107 -112.5t-37 -149z" />
<glyph unicode="&#xf5;" horiz-adv-x="1296" d="M63 443q0 134 54.5 254.5t146 206.5t218 136.5t265.5 50.5q110 0 201.5 -35.5t154 -98.5t97 -150t34.5 -189q0 -133 -54.5 -253t-146 -206t-218 -137t-265.5 -51q-110 0 -201.5 35.5t-154 98t-97 149.5t-34.5 189zM355 1238q0 73 19 130t52 91.5t75 55.5t88.5 24.5 t91.5 -4.5t84 -27l57 -29q38 -18 63 -13.5t36.5 23t11.5 48.5h238q0 -74 -19 -131.5t-51 -92.5t-74 -56t-88 -25t-92 4t-86 29l-58 28q-56 23 -83.5 6.5t-27.5 -61.5h-237zM397 487q0 -94 56 -154.5t152 -60.5q82 0 151 41t107.5 110t37.5 149q0 94 -57 156.5t-152 62.5 q-82 0 -151 -42.5t-107 -112.5t-37 -149z" />
<glyph unicode="&#xf6;" horiz-adv-x="1296" d="M63 443q0 134 54.5 254.5t146 206.5t218 136.5t265.5 50.5q110 0 201.5 -35.5t154 -98.5t97 -150t34.5 -189q0 -133 -54.5 -253t-146 -206t-218 -137t-265.5 -51q-110 0 -201.5 35.5t-154 98t-97 149.5t-34.5 189zM370 1370q0 75 55 127t134 52q77 0 131.5 -52t54.5 -127 q0 -77 -54.5 -128.5t-131.5 -51.5q-52 0 -95.5 23t-68.5 64.5t-25 92.5zM397 487q0 -94 56 -154.5t152 -60.5q82 0 151 41t107.5 110t37.5 149q0 94 -57 156.5t-152 62.5q-82 0 -151 -42.5t-107 -112.5t-37 -149zM837 1370q0 75 54.5 127t131.5 52q51 0 94.5 -23.5t69 -65 t25.5 -90.5q0 -77 -55.5 -128.5t-133.5 -51.5t-132 51.5t-54 128.5z" />
<glyph unicode="&#xf7;" horiz-adv-x="1498" d="M221 579l51 280h1071l-53 -280h-1069zM521 291q0 75 54 126.5t130 51.5q77 0 132 -51.5t55 -126.5t-55 -126.5t-132 -51.5q-76 0 -130 51.5t-54 126.5zM675 1157q0 75 54 126t130 51t131 -51.5t55 -126t-55 -126t-131 -51.5q-37 0 -71 14t-58.5 37.5t-39.5 56.5t-15 70z " />
<glyph unicode="&#xf8;" horiz-adv-x="1296" d="M57 48l100 99q-94 122 -94 296q0 134 54.5 254.5t146 206.5t218 136.5t265.5 50.5q170 0 290 -81l92 90l103 -96l-92 -90q94 -122 94 -296q0 -133 -54.5 -253t-146 -206t-218 -137t-265.5 -51q-168 0 -289 79l-101 -98zM397 487q0 -50 15 -90l379 372q-48 22 -99 22 q-82 0 -151 -42.5t-107 -112.5t-37 -149zM506 293q41 -21 99 -21q82 0 151 41t107.5 110t37.5 149q0 44 -18 89z" />
<glyph unicode="&#xf9;" horiz-adv-x="1334" d="M96 456l105 607h355l-96 -553q-13 -73 2 -123t53.5 -73t97.5 -23q100 0 215 104l119 668h355l-189 -1063h-354l12 71q-155 -100 -311 -100q-203 0 -303.5 130t-60.5 355zM379 1543h375l175 -351h-331z" />
<glyph unicode="&#xfa;" horiz-adv-x="1334" d="M96 456l105 607h355l-96 -553q-13 -73 2 -123t53.5 -73t97.5 -23q100 0 215 104l119 668h355l-189 -1063h-354l12 71q-155 -100 -311 -100q-203 0 -303.5 130t-60.5 355zM621 1192l236 351h375l-281 -351h-330z" />
<glyph unicode="&#xfb;" horiz-adv-x="1334" d="M96 456l105 607h355l-96 -553q-13 -73 2 -123t53.5 -73t97.5 -23q100 0 215 104l119 668h355l-189 -1063h-354l12 71q-155 -100 -311 -100q-203 0 -303.5 130t-60.5 355zM355 1177l318 360h335l193 -360h-298l-94 159l-134 -159h-320z" />
<glyph unicode="&#xfc;" horiz-adv-x="1334" d="M96 456l105 607h355l-96 -553q-13 -73 2 -123t53.5 -73t97.5 -23q100 0 215 104l119 668h355l-189 -1063h-354l12 71q-155 -100 -311 -100q-203 0 -303.5 130t-60.5 355zM341 1370q0 75 55.5 127t134.5 52q77 0 131.5 -52t54.5 -127q0 -77 -54.5 -128.5t-131.5 -51.5 q-52 0 -95.5 23t-69 64.5t-25.5 92.5zM809 1370q0 75 54.5 127t131.5 52q51 0 94 -23.5t68.5 -65t25.5 -90.5q0 -77 -55 -128.5t-133 -51.5t-132 51.5t-54 128.5z" />
<glyph unicode="&#xfd;" horiz-adv-x="1373" d="M113 1063h378l186 -642l383 642h387l-932 -1556h-383l317 530zM646 1192l237 351h375l-281 -351h-331z" />
<glyph unicode="&#xfe;" d="M-65 -493l360 2049h358l-97 -546q142 81 305 81q126 0 227 -61t157.5 -168.5t56.5 -240.5q0 -88 -25 -172.5t-68.5 -155t-104 -130t-130.5 -101t-149 -64.5t-158 -23q-165 0 -280 82l-96 -550h-356zM443 366q68 -101 203 -101q79 0 149 43t112 114.5t42 152.5 q0 62 -25.5 113.5t-74.5 81.5t-111 30q-132 0 -236 -103z" />
<glyph unicode="&#xff;" horiz-adv-x="1373" d="M113 1063h378l186 -642l383 642h387l-932 -1556h-383l317 530zM368 1370q0 75 55 127t133 52t132.5 -52t54.5 -127q0 -77 -54.5 -128.5t-132.5 -51.5q-79 0 -133.5 51.5t-54.5 128.5zM835 1370q0 75 54 127t132 52q77 0 132.5 -52t55.5 -127q0 -77 -55 -128.5t-133 -51.5 q-51 0 -93.5 23t-67.5 64.5t-25 92.5z" />
<glyph unicode="&#x152;" horiz-adv-x="2250" d="M121 631q0 121 34 234t96 207.5t150.5 172.5t194 132t230.5 84t257 30h1227l-58 -323h-755l-48 -271h661l-57 -316h-659l-46 -259h756l-57 -322h-1227q-157 0 -288.5 47t-221 130.5t-139.5 200t-50 253.5zM502 684q0 -152 101 -244.5t278 -92.5h101l140 797h-99 q-90 0 -171 -22.5t-144.5 -64.5t-110 -98.5t-71 -127t-24.5 -147.5z" />
<glyph unicode="&#x153;" horiz-adv-x="2076" d="M63 443q0 134 54.5 254.5t146 206.5t218 136.5t265.5 50.5q81 0 153 -19.5t128.5 -55.5t98.5 -87q90 76 202 117t235 41q175 0 287.5 -77.5t146.5 -218.5t-13 -339h-764q5 -94 60 -148.5t161 -54.5q107 0 168 58h351q-70 -154 -224 -243t-346 -89q-127 0 -226.5 40.5 t-165.5 113.5q-92 -75 -207.5 -116.5t-241.5 -41.5q-110 0 -201.5 35.5t-154 98t-97 149.5t-34.5 189zM397 487q0 -94 56 -154.5t152 -60.5q82 0 151 41t107.5 110t37.5 149q0 94 -57 156.5t-152 62.5q-82 0 -151 -42.5t-107 -112.5t-37 -149zM1263 655h435q8 173 -166 173 q-64 0 -117 -21t-90.5 -59.5t-61.5 -92.5z" />
<glyph unicode="&#x178;" horiz-adv-x="1564" d="M175 1491h404l243 -628l464 628h439l-772 -1042h-2l-77 -449h-372l79 452zM535 1821q0 50 25 91t68.5 65t94.5 24q78 0 132.5 -52.5t54.5 -127.5q0 -76 -54.5 -128t-132.5 -52q-79 0 -133.5 52t-54.5 128zM1002 1821q0 75 54 127.5t132 52.5q77 0 132.5 -52.5 t55.5 -127.5q0 -76 -55 -128t-133 -52t-132 52t-54 128z" />
<glyph unicode="&#x2c6;" horiz-adv-x="1313" d="M272 1212l318 359h334l193 -359h-297l-95 160l-133 -160h-320z" />
<glyph unicode="&#x2dc;" horiz-adv-x="1313" d="M305 1265q-1 73 18.5 130t52.5 91.5t75 55.5t88 24.5t91 -4.5t85 -28l56 -29q39 -17 63.5 -13t36.5 22.5t12 47.5h237q1 -73 -18 -130.5t-51.5 -92.5t-74 -56.5t-88 -25.5t-92 4.5t-86.5 28.5l-57 29q-56 24 -84 7.5t-28 -61.5h-236z" />
<glyph unicode="&#x2000;" horiz-adv-x="1065" />
<glyph unicode="&#x2001;" horiz-adv-x="2130" />
<glyph unicode="&#x2002;" horiz-adv-x="1065" />
<glyph unicode="&#x2003;" horiz-adv-x="2130" />
<glyph unicode="&#x2004;" horiz-adv-x="710" />
<glyph unicode="&#x2005;" horiz-adv-x="532" />
<glyph unicode="&#x2006;" horiz-adv-x="355" />
<glyph unicode="&#x2007;" horiz-adv-x="355" />
<glyph unicode="&#x2008;" horiz-adv-x="266" />
<glyph unicode="&#x2009;" horiz-adv-x="426" />
<glyph unicode="&#x200a;" horiz-adv-x="118" />
<glyph unicode="&#x2010;" horiz-adv-x="1217" d="M190 410h792l57 311h-792z" />
<glyph unicode="&#x2011;" horiz-adv-x="1217" d="M190 410h792l57 311h-792z" />
<glyph unicode="&#x2012;" horiz-adv-x="1217" d="M190 410h792l57 311h-792z" />
<glyph unicode="&#x2013;" horiz-adv-x="1518" d="M193 425h1089l57 288h-1090z" />
<glyph unicode="&#x2014;" horiz-adv-x="2348" d="M193 425h1919l55 288h-1918z" />
<glyph unicode="&#x2018;" horiz-adv-x="510" d="M173 1198q0 46 24 102.5t98 146.5l128 153h198l-165 -243q28 -12 49.5 -29.5t35 -38t20 -44t6.5 -49.5q0 -78 -57 -132t-138 -54q-82 0 -140.5 54.5t-58.5 133.5z" />
<glyph unicode="&#x2019;" horiz-adv-x="510" d="M160 1019l164 244q-56 24 -83.5 65.5t-27.5 93.5q0 78 57 132t138 54q54 0 99.5 -24.5t72.5 -68t27 -95.5q0 -29 -6.5 -55.5t-35 -78t-80.5 -113.5l-128 -154h-197z" />
<glyph unicode="&#x201a;" horiz-adv-x="512" d="M-59 -226l164 243q-56 24 -83.5 66t-27.5 95q0 78 57 132t137 54q83 0 141 -54.5t58 -134.5q0 -45 -23.5 -101.5t-98.5 -146.5l-127 -153h-197z" />
<glyph unicode="&#x201c;" horiz-adv-x="964" d="M173 1198q0 46 24 102.5t98 146.5l128 153h198l-165 -243q28 -12 49.5 -29.5t35 -38t20 -44t6.5 -49.5q0 -78 -57 -132t-138 -54q-82 0 -140.5 54.5t-58.5 133.5zM625 1198q0 46 23.5 102.5t98.5 146.5l127 153h197l-164 -243q56 -24 84 -66t28 -95q0 -78 -57 -132 t-138 -54q-83 0 -141 54.5t-58 133.5z" />
<glyph unicode="&#x201d;" horiz-adv-x="964" d="M160 1019l164 244q-56 24 -83.5 65.5t-27.5 93.5q0 78 57 132t138 54q54 0 99.5 -24.5t72.5 -68t27 -95.5q0 -29 -6.5 -55.5t-35 -78t-80.5 -113.5l-128 -154h-197zM613 1019l165 244q-38 16 -63 41t-36.5 54.5t-11.5 63.5q0 78 57 132t137 54q83 0 141 -54.5t58 -133.5 q0 -16 -1.5 -30.5t-9 -37.5t-20 -47.5t-36 -59t-55.5 -72.5l-127 -154h-198z" />
<glyph unicode="&#x201e;" horiz-adv-x="970" d="M-59 -226l164 243q-56 24 -83.5 66t-27.5 95q0 78 57 132t137 54q83 0 141 -54.5t58 -134.5q0 -45 -23.5 -101.5t-98.5 -146.5l-127 -153h-197zM399 -226l164 243q-56 24 -83.5 66t-27.5 95q0 78 57 132t137 54q54 0 100 -24.5t73 -68t27 -96.5q0 -44 -24 -101t-99 -147 l-127 -153h-197z" />
<glyph unicode="&#x2022;" horiz-adv-x="784" d="M77 651q0 87 46 163.5t123 122t164 45.5q88 0 165.5 -45.5t123.5 -122t46 -164t-46 -164t-123.5 -121.5t-165.5 -45q-38 0 -74.5 9t-69.5 25.5t-62 39.5t-52 52t-40 61.5t-26 69t-9 74.5z" />
<glyph unicode="&#x2026;" horiz-adv-x="1618" d="M-6 178q0 79 58 134.5t138 55.5q83 0 143 -55.5t60 -134.5q0 -81 -60 -137t-143 -56q-81 0 -138.5 56t-57.5 137zM550 178q0 79 58 134.5t139 55.5q82 0 142 -55.5t60 -134.5q0 -81 -59.5 -137t-142.5 -56q-81 0 -139 56t-58 137zM1096 178q0 79 58 134.5t139 55.5 q82 0 142 -55.5t60 -134.5q0 -81 -60 -137t-142 -56q-81 0 -139 56t-58 137z" />
<glyph unicode="&#x202f;" horiz-adv-x="426" />
<glyph unicode="&#x2039;" horiz-adv-x="621" d="M42 552l272 353h315l-272 -366l147 -340h-316z" />
<glyph unicode="&#x203a;" horiz-adv-x="621" d="M0 199l272 366l-147 340h316l146 -353l-271 -353h-316z" />
<glyph unicode="&#x205f;" horiz-adv-x="532" />
<glyph unicode="&#x20ac;" horiz-adv-x="1787" d="M50 477l33 196h107q4 45 9 72q4 21 10 39h-106l35 195h136q115 244 347.5 391.5t507.5 147.5q200 0 347.5 -81t221 -227.5t62.5 -337.5h-382q-3 93 -40.5 160t-107.5 103t-167 36q-118 0 -217 -51t-169 -141h542l-84 -195h-550q-4 -11 -8 -39q-7 -39 -10 -72h522 l-83 -196h-395q41 -75 119 -116t184 -41q130 0 249 83t171 215h380q-42 -143 -125 -263t-194.5 -204.5t-250.5 -132t-289 -47.5q-265 0 -442.5 137.5t-215.5 368.5h-147z" />
<glyph unicode="&#x2122;" horiz-adv-x="1539" d="M188 1313l31 175h586l-31 -175h-197l-82 -464h-190l80 464h-197zM745 849l114 639h140l178 -327l291 327h142l-111 -639h-188l50 286l-175 -206v-2h-99v2l-105 206l-51 -286h-186z" />
<glyph unicode="&#x25fc;" horiz-adv-x="1062" d="M0 0v1063h1063v-1063h-1063z" />
</font>
</defs>
</svg>
